<?xml version="1.0" encoding="UTF-8"?>
<svg version="1.1" xmlns="http://www.w3.org/2000/svg" width="512" height="512">
<path d="M0 0 C4.2601347 1.73365283 7.40488091 4.74946442 10.8125 7.75 C11.79947876 8.61455811 11.79947876 8.61455811 12.80639648 9.49658203 C28.7235131 23.51515328 44.05713482 38.12649959 57 55 C57.71639648 55.93223389 57.71639648 55.93223389 58.44726562 56.88330078 C83.32956779 89.53551237 97.31772728 124.33815794 102 165 C105.05866994 161.3798351 108.05308639 157.71149461 111 154 C111.41668945 153.47567383 111.83337891 152.95134766 112.26269531 152.41113281 C125.00210636 136.13466176 135.11119982 115.5565769 135.1328125 94.53515625 C135.13474609 92.71661133 135.13474609 92.71661133 135.13671875 90.86132812 C135.13285156 89.60771484 135.12898438 88.35410156 135.125 87.0625 C135.12886719 85.81275391 135.13273437 84.56300781 135.13671875 83.27539062 C135.13049947 77.41994101 135.08214947 71.76287538 134 66 C138.16875613 66.52596456 140.26819527 68.80506467 143.25 71.625 C144.23632053 72.54888074 145.22330236 73.47205598 146.2109375 74.39453125 C147.13132812 75.25433594 148.05171875 76.11414063 149 77 C150.28584026 78.11094628 151.57684283 79.2159715 152.875 80.3125 C162.50371159 88.71537972 171.1182212 97.95107712 179 108 C179.85576026 109.03316991 180.71393689 110.06434201 181.57421875 111.09375 C208.85793559 144.1369258 228.01609963 191.57703626 225 235 C224.26048101 242.11724144 223.32636868 249.20933393 222.36376953 256.29931641 C221.88372515 259.86324319 221.43921628 263.43083471 221 267 C238.45434545 251.91860181 249.55494646 229.17401594 260 209 C260.66 209 261.32 209 262 209 C272.39522705 240.9479978 276.70782567 273.75251625 270 307 C269.84966309 307.75120117 269.69932617 308.50240234 269.54443359 309.27636719 C265.62550773 327.74374577 256.77549607 348.26933183 243.90405273 362.28173828 C236.55758147 370.74348999 236.98232058 378.50776365 237.25 389.125 C237.7330078 418.29628619 228.84116076 442.76959991 208.71386719 464.27001953 C199.72718645 473.34119043 189.2560444 480.10924458 178 486 C177.19820313 486.44601562 176.39640625 486.89203125 175.5703125 487.3515625 C146.50775872 502.93874532 111.62535672 507.72057294 79.23046875 510.625 C78.51203167 510.68964636 77.79359459 510.75429272 77.05338669 510.82089806 C60.49583872 512.27372627 43.99476946 512.42286789 27.38458252 512.3225708 C24.35856784 512.30908407 21.3326987 512.31442933 18.30666733 512.31942654 C-6.40264602 512.35036311 -31.02299503 511.44353419 -55.5 507.8125 C-56.58090912 507.65535019 -56.58090912 507.65535019 -57.68365479 507.49502563 C-98.90242824 501.43443114 -142.76792256 488.20983461 -168.828125 453.328125 C-184.03796994 431.90152451 -189.03404035 407.95933845 -187.30664062 382.03515625 C-186.99018845 371.61905252 -190.26314342 366.67814696 -197 359 C-214.001956 335.00063054 -223.40125771 306.40486604 -223.31567383 277.07495117 C-223.31252829 274.83266825 -223.33601427 272.59172911 -223.36132812 270.34960938 C-223.5604657 225.32109049 -200.77688216 187.22722882 -170 156 C-167.98569843 154.09575133 -165.94967133 152.27979023 -163.81640625 150.51171875 C-162.56288763 149.46846777 -161.34266089 148.38435259 -160.15234375 147.26953125 C-137.46628095 126.06964597 -108.25542365 110.07539513 -80 97.75 C-47.66392711 83.63938641 -20.91042219 63.28684161 -7 30 C-3.50880108 20.28212009 -1.73966946 10.14807184 0 0 Z M14.125 207.5 C-3.65385888 225.93057658 -10.24626994 245.88046643 -10 271 C-24.010719 260.56596103 -29.26504343 245.47644569 -32 229 C-46.38592549 236.95762004 -54.62217985 251.33530565 -59.40625 266.57421875 C-60.11887413 269.06943184 -60.11887413 269.06943184 -60 272 C-72.87109003 261.25231315 -79.83889064 249.84871636 -85 234 C-99.57464918 245.8976728 -108.11506621 260.33491991 -111.75 278.8125 C-111.94556071 281.30589901 -112.02588313 283.70392846 -112.015625 286.19921875 C-112.00789063 288.08060547 -112.00789063 288.08060547 -112 290 C-113.11375 289.95359375 -114.2275 289.9071875 -115.375 289.859375 C-136.29003506 289.25712167 -152.67613292 294.51941564 -168.16015625 309.0234375 C-178.27852085 319.51222393 -183.85692534 333.77191939 -184.4375 348.25 C-184.25212165 354.41584515 -182.81411118 358.98543159 -178.57421875 363.52734375 C-173.68557563 367.88543645 -169.36214411 369.27047136 -162.91674805 369.13525391 C-161.70347336 369.11515762 -160.49019867 369.09506134 -159.24015808 369.07435608 C-157.9272731 369.0420842 -156.61438812 369.00981232 -155.26171875 368.9765625 C-153.87500281 368.94964944 -152.48826779 368.92370428 -151.10151672 368.89866638 C-148.15731016 368.84410707 -145.21329832 368.78372963 -142.26928711 368.71951294 C-137.67651793 368.62145818 -133.08356834 368.55148015 -128.49023438 368.48608398 C-115.42708299 368.29391459 -102.38273583 368.06510303 -89.33203125 367.43359375 C-59.8801795 366.16639237 -59.8801795 366.16639237 -48.23828125 376.75610352 C-47.01429675 377.97113433 -45.80266862 379.19880861 -44.60693359 380.44165039 C-40.46776923 384.45567137 -36.23696453 385.43070585 -30.625 385.4375 C-29.56539062 385.45683594 -28.50578125 385.47617187 -27.4140625 385.49609375 C-21.3393005 384.61337662 -16.59501128 381.59206911 -11.82563782 377.82261658 C0.32054907 368.25575777 9.45919409 366.06873595 24.70703125 366.37890625 C26.7314267 366.37776334 28.75582375 366.37229564 30.78019714 366.36277771 C34.98763355 366.35720114 39.19141738 366.39629177 43.39819336 366.4699707 C48.75322556 366.56113365 54.10207602 366.54920074 59.45750904 366.50512791 C63.62506764 366.4804988 67.79122525 366.50529977 71.95862389 366.54502678 C73.93146523 366.55909368 75.90445814 366.55957527 77.87729836 366.54535103 C91.66235696 366.48832996 99.70345442 368.73891792 110 378 C116.9873451 383.5978747 122.64967658 386.82020381 132 386 C137.79295515 384.13883362 142.2263418 381.77265726 147.0625 378.125 C148.22005208 377.2734375 149.37760417 376.421875 150.53515625 375.5703125 C151.034104 375.19664551 151.53305176 374.82297852 152.04711914 374.43798828 C152.69156982 373.96345215 153.33602051 373.48891602 154 373 C154.9369873 372.13366943 155.87397461 371.26733887 156.83935547 370.37475586 C162.26659311 366.53666602 168.65239286 367.35275175 175.03515625 367.43359375 C176.40084177 367.43062927 177.76652381 367.42489049 179.13218689 367.41651917 C183.44251684 367.39586838 187.7522121 367.41540397 192.0625 367.4375 C197.06456263 367.45866391 202.06597252 367.46309483 207.06802177 367.43699837 C209.06102064 367.4336552 211.0540112 367.45529516 213.04689026 367.47740173 C221.8610122 367.5444722 221.8610122 367.5444722 229 363 C234.94015242 355.13331166 234.90031664 347.48393175 233.57421875 337.93359375 C230.05972559 321.74105162 220.29463026 309.0274953 206.80859375 299.75 C192.71703842 290.9697263 178.20987961 289.47013711 162 290 C162.03480469 289.35675781 162.06960938 288.71351563 162.10546875 288.05078125 C162.65265324 269.78524199 155.59723293 254.21258368 143.30102539 241.07226562 C140.44664903 238.16143742 137.59223815 235.92417875 134 234 C133.75765625 234.845625 133.5153125 235.69125 133.265625 236.5625 C129.23509189 250.20430439 123.66158104 261.25381422 112 270 C111.78085937 269.24976563 111.56171875 268.49953125 111.3359375 267.7265625 C106.39120976 251.76675021 96.2954209 239.09598807 83 229 C82.67 229 82.34 229 82 229 C81.86464844 229.84820312 81.72929687 230.69640625 81.58984375 231.5703125 C79.34940431 243.77869507 75.06559648 255.14043981 66 264 C65.01 264.33 64.02 264.66 63 265 C62.87367188 264.2575 62.74734375 263.515 62.6171875 262.75 C60.9894472 255.49728375 56.33367806 250.04211844 51.5625 244.5625 C42.47794218 234.1138218 34.81883303 221.97955159 34.90234375 207.69921875 C34.90556641 206.72275391 34.90878906 205.74628906 34.91210938 204.74023438 C34.92048828 203.73283203 34.92886719 202.72542969 34.9375 201.6875 C34.94201172 200.66076172 34.94652344 199.63402344 34.95117188 198.57617188 C34.96291816 196.05072118 34.97934435 193.52539095 35 191 C29.09014429 191 18.29142119 203.4447614 14.125 207.5 Z M-175 407.75 C-176.52024944 411.17056125 -175.95401173 413.4383562 -175 417 C-172.73466753 419.86942113 -171.48277163 420.83907612 -168 422 C-165.87905509 422.09462236 -163.75518958 422.12735149 -161.63213539 422.12863445 C-160.65415426 422.13126401 -160.65415426 422.13126401 -159.65641594 422.13394669 C-157.45652078 422.13862429 -155.2566912 422.13613668 -153.05679321 422.13371277 C-151.46971882 422.13557986 -149.88264488 422.13788015 -148.29557168 422.14057809 C-143.92239165 422.14671515 -139.54923068 422.14656026 -135.17604733 422.14538372 C-130.46430095 422.14518019 -125.75256077 422.15069386 -121.04081726 422.15544128 C-111.8051938 422.16375881 -102.56957671 422.16649662 -93.33394982 422.16705366 C-85.82929504 422.1675283 -78.32464237 422.16958041 -70.81998825 422.17275429 C-49.55809151 422.18156383 -28.29619982 422.18617319 -7.03430124 422.18542381 C-5.31382603 422.18536388 -5.31382603 422.18536388 -3.55859375 422.18530273 C-2.41021512 422.18526185 -1.26183649 422.18522097 -0.07865851 422.18517885 C18.53814456 422.18477229 37.15492741 422.19434373 55.77172463 422.2084411 C74.87244479 422.22279117 93.97315509 422.22971204 113.07388079 422.22884732 C123.80346761 422.22851488 134.53303323 422.23128257 145.2626152 422.24202538 C154.39722033 422.25111238 163.53179465 422.25332049 172.66640233 422.24651595 C177.32922771 422.24324163 181.99199394 422.2432268 186.65481377 422.2518692 C190.92083368 422.25969501 195.18674715 422.25834317 199.45276435 422.24958507 C200.99851431 422.24804139 202.54427205 422.24989865 204.09001283 422.25544515 C206.18695619 422.2624729 208.2835228 422.25723733 210.38045311 422.24888897 C212.12947381 422.24921502 212.12947381 422.24921502 213.91382825 422.24954766 C218.38645701 421.88789117 221.07869594 420.84856953 224.375 417.8125 C226.27269247 415.03561119 226.27269247 415.03561119 226.125 411.5 C225.02513887 408.07820983 224.06756837 406.24104424 221.23122013 404.03152752 C215.90846281 401.57073462 209.47557192 402.32794338 203.70948792 402.37854004 C202.12124308 402.37421057 200.53300296 402.36769415 198.94477504 402.35917997 C194.58203844 402.34217452 190.21987506 402.35637928 185.85716856 402.37569475 C181.15155203 402.39110953 176.44600631 402.37772299 171.74038696 402.36795044 C162.52247186 402.35341461 153.30477681 402.36566748 144.08688254 402.38706368 C133.35437612 402.41106198 122.62192026 402.40936 111.88939296 402.40675777 C92.74026247 402.40306641 73.59123571 402.42390286 54.44213867 402.45800781 C35.85747658 402.49109526 17.27292338 402.50526701 -1.31176758 402.49902344 C-21.54376745 402.49225989 -41.77572168 402.49471902 -62.00771481 402.51438284 C-63.07754349 402.51542232 -64.14737216 402.51646181 -65.24961989 402.5175328 C-67.39836825 402.51962371 -69.54711658 402.52173468 -71.6958649 402.52386597 C-79.1781974 402.5307629 -86.66051586 402.53143064 -94.14285088 402.52998352 C-103.26125307 402.52854401 -112.37956644 402.53823103 -121.49793916 402.56192988 C-126.15092177 402.57379273 -130.80378055 402.58091311 -135.45677757 402.57509232 C-139.71606331 402.56992148 -143.97508742 402.57860524 -148.2343284 402.59836692 C-149.77530598 402.60310756 -151.31630903 402.60280555 -152.85728281 402.59695655 C-154.95274481 402.58977137 -157.04734075 402.60105558 -159.14273739 402.61688995 C-160.8881796 402.61924676 -160.8881796 402.61924676 -162.66888326 402.62165117 C-167.39107331 403.15799835 -171.36348081 404.56804571 -175 407.75 Z " fill="#000000" transform="translate(231,0)"/>
<path d="M0 0 C1.28594988 -0.00311998 2.57189975 -0.00623996 3.8968178 -0.00945449 C7.4551583 -0.0177872 11.01339121 -0.01368414 14.57173204 -0.00748205 C18.41367851 -0.00295223 22.25560663 -0.00994402 26.09754944 -0.01544189 C33.62012504 -0.02433238 41.14266072 -0.02241527 48.66523789 -0.01661661 C54.78055809 -0.01209811 60.89586711 -0.01148804 67.01118851 -0.01366425 C68.31722629 -0.01412394 68.31722629 -0.01412394 69.64964867 -0.01459293 C71.41852136 -0.01523239 73.18739404 -0.01588082 74.95626672 -0.01653811 C91.54148693 -0.02224057 108.12668503 -0.01568518 124.71190162 -0.00493738 C138.9356819 0.00399491 153.15942954 0.00244858 167.38320923 -0.0067749 C183.90637074 -0.01748444 200.42951287 -0.02168794 216.95267737 -0.01555037 C218.7156198 -0.01491329 220.47856223 -0.01428455 222.24150467 -0.01366425 C223.54254979 -0.01320142 223.54254979 -0.01320142 224.86987864 -0.01272924 C230.9752015 -0.01100412 237.08051203 -0.01391354 243.18583298 -0.01862335 C250.6301465 -0.02423991 258.07441786 -0.02269956 265.51872657 -0.01206186 C269.31526333 -0.00681511 273.11172987 -0.00473135 276.90826607 -0.01136017 C281.02769067 -0.01844379 285.14693881 -0.00997037 289.26635742 0 C290.46101572 -0.00446144 291.65567403 -0.00892289 292.88653409 -0.01351953 C308.43161439 0.05946393 320.64612062 4.89433316 332.04141235 15.80865479 C341.03247058 25.71781402 345.26016235 35.96298169 345.26016235 49.25396729 C213.26016235 49.25396729 81.26016235 49.25396729 -54.73983765 49.25396729 C-53.43331468 33.57569168 -49.56232476 23.86300713 -38.31796265 12.89068604 C-26.76719054 3.12403 -14.7769144 -0.05497897 0 0 Z " fill="#000000" transform="translate(110.73983764648438,298.74603271484375)"/>
<path d="M0 0 C0 3 0 3 -2.3125 5.625 C-5 8 -5 8 -8 9 C-6.4169423 4.7257442 -3.49431596 2.73468206 0 0 Z " fill="#010101" transform="translate(76,309)"/>
<path d="M0 0 C0.99 0.33 1.98 0.66 3 1 C2.25 2.9375 2.25 2.9375 1 5 C-1.125 5.75 -1.125 5.75 -3 6 C-1.125 1.125 -1.125 1.125 0 0 Z " fill="#0C0C0C" transform="translate(468,362)"/>
<path d="M0 0 C0.99 0.33 1.98 0.66 3 1 C1.515 2.485 1.515 2.485 0 4 C-0.99 3.67 -1.98 3.34 -3 3 C-2.01 2.01 -1.02 1.02 0 0 Z " fill="#060606" transform="translate(173,87)"/>
</svg>
